# xmcd
#
# Track frame offsets:
#	150
#	22017
#	39460
#	49101
#	83425
#	109520
#	127696
#	142688
#	163750
#	175444
#	194149
#
# Disc length: 2895 seconds
#
# Revision: 0
# Processed by: cddbd v1.4PL0 Copyright (c) Steve Scherf et al.
# Submitted via: dBpowerAMP V4.0
#
DISCID=880b4d0b
DTITLE=Blue Eyed Devils - The Legend Of Shorty Brown
DYEAR=1900
DGENRE=Blues
TTITLE0=Good Times
TTITLE1=Buked' And Scorned
TTITLE2=I'm Movin' Blues
TTITLE3=Caliphono Blues
TTITLE4=Bare Bones Woman Blues
TTITLE5=Lone Mountain
TTITLE6=Hey Hey Lawdy Lawd
TTITLE7=3am Blues
TTITLE8=Vista Montaña Rag
TTITLE9=That Train
TTITLE10=Trouble
EXTD=
EXTT0=
EXTT1=
EXTT2=
EXTT3=
EXTT4=
EXTT5=
EXTT6=
EXTT7=
EXTT8=
EXTT9=
EXTT10=
PLAYORDER=
